<svg xmlns="http://www.w3.org/2000/svg" viewBox="0 0 480 596"><path style="stroke:none;fill-rule:evenodd;fill:#005aab;fill-opacity:1" d="M88.043 243.605c1.414 2.211 7.273 22.047 8.129 25.915l-16.047-.141Zm52.66-23.835c-7.77 2.292-7.738 10.43-7.738 19.082 0 14.054-.57 40.558.015 52.984.692 14.644 16.961 16.144 21.125 4.668 1.715-4.723.954-32.57.954-38.672 0-8.523.398-18.059-.051-26.457-.41-7.652-5.625-14.164-14.305-11.605Zm28.352 22.816c-12.344.074-12.614 14.027 0 14.937v28.559c0 4.621-.547 8.73 1.437 12.477 3.965 7.476 15.465 6.765 18.656.316 2.965-6.004.106-30.008 1.461-41.355 6.68 0 13.746-.227 13.555-7.63-.195-7.43-6.746-7.304-13.684-7.304 0-4.625-.515-7.305 4.403-7.762 4.281-.398 7.601 1 9.527-2.347 3.512-6.106-1.433-11.622-10.055-12.872-7.62-1.101-15.09.458-20 4.012-5.585 4.04-5.3 12.496-5.3 18.969Zm65.765 14.281c8.868-1.887 11.227 6.258 11.707 13.746.52 8.043-.359 17.614-8.347 18.32-9.227.817-12.125-5.972-12.54-14.32-.44-8.84 1.665-16.144 9.18-17.746Zm14.368 43.953c1.62 1.145 1.652 1.89 3.609 2.828 4.777 2.297 11.277.918 14.254-4.546l.437-52.079c-2.863-6.902-13.277-9.328-17.707-2.718-4.125-.852-6.14-4.535-16.941-3.653-5.836.477-11.184 2.286-15.258 4.993-7.164 4.765-13.297 13.796-13.723 26.746-.43 13.105 5.715 22.468 13.27 27.21 4.191 2.633 9.434 4.489 15.289 4.922 10.695.797 11.684-2.035 16.77-3.703ZM74.96 287.977l26.484-.137c1.102 4.738 3.016 11.586 5.914 13.832 4.59 3.55 11.317 2.664 15.121-1.043 4.82-4.695 3.75-9.074 1.473-15.563-1.781-5.082-3.48-9.93-5.281-15.011a7341.089 7341.089 0 0 1-10.461-29.7c-4.445-12.68-4.273-20.558-20.137-20.484-6.633.031-11.715 1.332-14.261 5.606-2.504 4.203-17.77 49.668-21.32 59.464-2.161 5.97-3.079 11.172 1.046 15.368 4.828 4.91 15.73 6.23 19.055-4.543.808-2.621 1.582-5.082 2.367-7.79"/><path style="stroke:none;fill-rule:evenodd;fill:#ed1c24;fill-opacity:1" d="m50.55 351.852.087 8.722 398.508-.004c22.066 0 44.156.11 66.218.004 8.754-.039 18.032-3.988 22.653-10.332 6.683-9.168 6.707-12.906 6.707-26.437-4.907-.774-421.946-.207-465.04-.203-15.734 0-29.132 12.492-29.132 28.25M507.84 227.871c1.246 3.059 1.926 1.996 1.777 7.02-.082 2.773-.543 5.515-1.058 8.222-.914 4.82-2.317 9.723-3.434 14.61-4.39 19.168-13.66 50.27 15.633 46.554 9.82-1.246 21.222-6.867 14.887-17.672-4.22 2.43-17.215 11.504-17.22-2.28 0-8.516 3.145-16.75 4.325-24.837 9.277-.02 21.367 2.028 21.973-12.066-6.594 1.332-12.364 1.914-19.422 1.582.855-5.383 5.781-17.098 2.82-21.16-3.808-5.223-14.863-1.301-20.281.027ZM303.516 259.38c.847-5.012 4.52-14.234 0-17.473-4.157-2.972-13.856-.879-17.977 1.45 2.52 2.062 1.973 5.488 1.465 9.542-1.082 8.598-3.793 20.59-5.973 28.813-1.16 4.375-5.008 14.57-2.828 18.594 2.942 5.425 11.867 3.879 17.738 1.976-.55-4.5-2.902-4.793 1.848-14.375 2.106-4.242 4.094-8.238 6.207-12.34 2.164-4.199 4.64-7.96 7.004-11.543a62.386 62.386 0 0 1 3.969-5.3c.804-.97 1.441-1.305 2.246-2.16 1.156-1.231 1-1.602 3.058-1.813.727 5.293-4.894 26.273-6.375 32.496-1.144 4.809-3.8 11.7.204 15.145 3.43 2.953 12.289 1.726 15.855-.418-2.203-5.75-.5-9.286 1.965-14.36 2.105-4.336 3.984-8.199 6.277-12.277 2.656-4.719 11.809-20.383 16.04-20.57.734 2.039-5.434 28.785-6.286 33.41-1.195 6.484-.855 12.875 4.496 15.152 6.434 2.738 11.664-1.207 16.043-2.914-.664-1.516.098.004-.781-1.305-.707-1.05-.211.008-.895-1.34-3.12-6.16-.164-17.058 1.172-23.519 1.262-6.094 5.246-21.605 4.496-27.191-1.375-10.223-12.765-8.098-20.386-2.844-3.485 2.406-5.696 5.015-8.22 7.68-3.171 3.351-5.534 7.218-7.28 9.066.464-5.277 3.07-11.05.824-16.309-2.04-4.773-7.402-5.914-13.43-3.824-7.375 2.559-11.469 7.793-16.07 13.059-.844.965-1.211 1.492-2.137 2.722Zm117.37-1.82c-1.241 1.59-7.679 14.16-12.152 20.343-1.964 2.72-14.492 21.848-13.355 4.645.52-7.918 5.094-33.895 16.383-31.91 3.633.64 8.12 4.582 9.125 6.922Zm-5.722 25.89c-.21 7.055-1.672 15.559 3.649 18.844 5.921 3.656 13.613 1.57 17.57-1.934-1.703-6-2.781-5.246-2.399-15.16.371-9.613 2.149-20.379 5.121-29.453l4.704-12.48c-2.977-2.051-11.137-3.414-15.45-2.223-1.765.488-3.046 1.965-4.695 1.695-.492-.082-3.297-1.508-4.39-1.843-17.872-5.54-32.946 10.39-39.727 27.23-4.52 11.223-7.242 34.063 6.66 36.223 7.66 1.187 14.316-3.297 17.664-7.036 2.758-3.082 2-1.742 5.879-6.48 1.52-1.86 3.926-6.156 5.414-7.383Zm55.758-23.594c.101-5.503 5.039-13.683.023-17.652-4.742-3.754-13.066-.66-18.113.777 2.66 6.73 1.27 11.227-.453 19.399a406.318 406.318 0 0 1-4.563 19.262c-1.132 4.312-5.136 15.457-2.77 19.132 3.34 5.176 12.802 3.422 18.481 1.461-.66-5.199-2.75-3.726 1.52-13.933 1.84-4.406 3.687-8.094 5.933-12.156 1.997-3.614 8.375-13.63 12.375-15.028 3.235-1.129 4.602.985 5.954 2.785 7.28-4.53 16.746-26.203 2.859-23.918-8.395 1.38-16.715 13.739-21.246 19.871"/><path style="stroke:none;fill-rule:evenodd;fill:#ffd503;fill-opacity:1" d="M50.55 377.453h452.887c11.297 0 19.141.977 27.797-4.43 4.692-2.93 12.766-11.43 12.801-19.28-1.558 1.062-2.36 2.609-3.867 3.945-14.004 12.402-26.2 9.765-46.004 9.765H50.586l-.035 10"/></svg>
